# xmcd
#
# Track frame offsets:
# 150
# 20203
# 38088
# 54402
# 65922
# 80625
# 100726
# 119060
# 135534
# 150341
# 164716
# 180910
# 195341
# 215206
# 230562
# 241922
# 253383
# 267212
# 279340
# 294203
# 310552
# 326314
#
# Disc length: 4571 seconds
#
#
# Revision: 0
# Processed by: cddbd v1.5.1PL0 Copyright (c) Steve Scherf et al.
# Submitted via: FreeRIP 2.00 
#
DISCID=3c11d916
DTITLE=Spaleny Petr - Dite stesteny
DYEAR=2001
DGENRE=Country
TTITLE0=Dite stesteny
TTITLE1=Kdyz ji potkas
TTITLE2=Panska jizda
TTITLE3=Peggy
TTITLE4=Kolej Albertov
TTITLE5=Chlap ze stranky 5
TTITLE6=Obycejny muz
TTITLE7=Domaci lekar
TTITLE8=Stana
TTITLE9=Je to trest
TTITLE10=Prazdny kamion
TTITLE11=Nelekej se
TTITLE12=Muz dal jmena vsem zviratum
TTITLE13=Nekdy priste
TTITLE14=Hotel blues
TTITLE15=Necitim se sam
TTITLE16=Baletky
TTITLE17=Domaci kutil
TTITLE18=Kam se lasky podeji?
TTITLE19=Houpaci sit
TTITLE20=Mistr snacku
TTITLE21=Hrac
EXTD=
EXTT0=
EXTT1=
EXTT2=
EXTT3=
EXTT4=
EXTT5=
EXTT6=
EXTT7=
EXTT8=
EXTT9=
EXTT10=
EXTT11=
EXTT12=
EXTT13=
EXTT14=
EXTT15=
EXTT16=
EXTT17=
EXTT18=
EXTT19=
EXTT20=
EXTT21=
PLAYORDER=
